<svg xmlns="http://www.w3.org/2000/svg" viewBox="0 0 700 700" width="700" height="700">
  <defs>
    <linearGradient id="g1" x1="20%" y1="0%" x2="80%" y2="100%">
      <stop offset="0%" stop-color="#A8426E"/>
      <stop offset="100%" stop-color="#7A2D50"/>
    </linearGradient>
    <linearGradient id="g2" x1="20%" y1="0%" x2="80%" y2="100%">
      <stop offset="0%" stop-color="#CC6B90"/>
      <stop offset="100%" stop-color="#A8426E"/>
    </linearGradient>
    <linearGradient id="g3" x1="20%" y1="0%" x2="80%" y2="100%">
      <stop offset="0%" stop-color="#E8A0BC"/>
      <stop offset="100%" stop-color="#CC6B90"/>
    </linearGradient>
    <linearGradient id="g4" x1="20%" y1="0%" x2="80%" y2="100%">
      <stop offset="0%" stop-color="#F5C4D8"/>
      <stop offset="100%" stop-color="#E8A0BC"/>
    </linearGradient>
    <linearGradient id="g5" x1="20%" y1="0%" x2="80%" y2="100%">
      <stop offset="0%" stop-color="#FFDFE9"/>
      <stop offset="100%" stop-color="#F5C4D8"/>
    </linearGradient>
    <filter id="sh" x="-6%" y="-6%" width="115%" height="115%">
      <feGaussianBlur in="SourceAlpha" stdDeviation="4"/>
      <feOffset dy="3"/>
      <feFlood flood-color="rgba(80,20,45,0.1)"/>
      <feComposite in2="SourceAlpha" operator="in"/>
      <feMerge>
        <feMergeNode/>
        <feMergeNode in="SourceGraphic"/>
      </feMerge>
    </filter>
  </defs>
  <g filter="url(#sh)">
    <path d="M 351.6,352.1 C 302.1,301.2 204.4,307.3 154.7,332.4 C 154.7,332.4 135.8,351.3 151.2,373.2 C 195.7,406.4 290.8,429.4 348.4,387.9 Z" fill="url(#g1)" opacity="0.93"/>
    <path d="M 335.1,368.7 L 182.9,355.4" stroke="rgba(255,255,255,0.18)" stroke-width="0.9" fill="none"/>
    <path d="M 351.6,387.9 C 409.2,429.4 504.3,406.4 548.8,373.2 C 548.8,373.2 564.2,351.3 545.3,332.4 C 495.6,307.3 397.9,301.2 348.4,352.1 Z" fill="url(#g1)" opacity="0.93"/>
    <path d="M 364.9,368.7 L 517.1,355.4" stroke="rgba(255,255,255,0.18)" stroke-width="0.9" fill="none"/>
    <path d="M 358.8,354.8 C 330.3,291.6 236.0,252.4 180.0,250.5 C 180.0,250.5 155.1,257.5 161.5,282.5 C 191.2,330.1 272.2,392.2 341.2,385.2 Z" fill="url(#g1)" opacity="0.93"/>
    <path d="M 337.0,362.5 L 198.0,282.2" stroke="rgba(255,255,255,0.18)" stroke-width="0.9" fill="none"/>
    <path d="M 358.8,385.2 C 427.8,392.2 508.8,330.1 538.5,282.5 C 538.5,282.5 544.9,257.5 520.0,250.5 C 464.0,252.4 369.7,291.6 341.2,354.8 Z" fill="url(#g1)" opacity="0.93"/>
    <path d="M 363.0,362.5 L 502.0,282.2" stroke="rgba(255,255,255,0.18)" stroke-width="0.9" fill="none"/>
    <path d="M 363.9,360.2 C 365.8,294.8 301.2,224.7 253.8,201.5 C 253.8,201.5 229.5,198.0 224.6,222.0 C 230.2,274.4 273.9,359.2 336.1,379.8 Z" fill="url(#g1)" opacity="0.93"/>
    <path d="M 341.4,357.7 L 256.0,235.8" stroke="rgba(255,255,255,0.18)" stroke-width="0.9" fill="none"/>
    <path d="M 363.9,379.8 C 426.1,359.2 469.8,274.4 475.4,222.0 C 475.4,222.0 470.5,198.0 446.2,201.5 C 398.8,224.7 334.2,294.8 336.1,360.2 Z" fill="url(#g1)" opacity="0.93"/>
    <path d="M 358.6,357.7 L 444.0,235.8" stroke="rgba(255,255,255,0.18)" stroke-width="0.9" fill="none"/>
    <path d="M 366.4,370.0 C 399.6,321.2 388.3,233.5 365.8,190.6 C 365.8,190.6 350.0,175.0 334.2,190.6 C 311.7,233.5 300.4,321.2 333.6,370.0 Z" fill="url(#g1)" opacity="0.93"/>
    <path d="M 350.0,355.0 L 350.0,217.9" stroke="rgba(255,255,255,0.18)" stroke-width="0.9" fill="none"/>
    <path d="M 353.9,355.3 C 319.5,309.9 238.3,299.9 194.2,311.7 C 194.2,311.7 176.1,323.4 185.9,342.6 C 218.3,374.8 293.6,406.8 346.1,384.7 Z" fill="url(#g2)" opacity="0.93"/>
    <path d="M 335.5,366.1 L 214.4,333.7" stroke="rgba(255,255,255,0.18)" stroke-width="0.9" fill="none"/>
    <path d="M 353.9,384.7 C 406.4,406.8 481.7,374.8 514.1,342.6 C 514.1,342.6 523.9,323.4 505.8,311.7 C 461.7,299.9 380.5,309.9 346.1,355.3 Z" fill="url(#g2)" opacity="0.93"/>
    <path d="M 364.5,366.1 L 485.6,333.7" stroke="rgba(255,255,255,0.18)" stroke-width="0.9" fill="none"/>
    <path d="M 359.5,358.7 C 344.9,304.1 274.2,258.8 229.3,249.1 C 229.3,249.1 208.3,251.1 210.0,272.1 C 227.3,314.7 284.2,376.4 340.5,381.3 Z" fill="url(#g2)" opacity="0.93"/>
    <path d="M 338.5,360.4 L 239.5,277.2" stroke="rgba(255,255,255,0.18)" stroke-width="0.9" fill="none"/>
    <path d="M 359.5,381.3 C 415.8,376.4 472.7,314.7 490.0,272.1 C 490.0,272.1 491.7,251.1 470.7,249.1 C 425.8,258.8 355.1,304.1 340.5,358.7 Z" fill="url(#g2)" opacity="0.93"/>
    <path d="M 361.5,360.4 L 460.5,277.2" stroke="rgba(255,255,255,0.18)" stroke-width="0.9" fill="none"/>
    <path d="M 363.1,363.9 C 370.7,311.3 327.8,242.8 293.4,215.7 C 293.4,215.7 274.8,208.7 268.2,227.4 C 266.8,271.3 291.7,348.1 336.9,376.1 Z" fill="url(#g2)" opacity="0.93"/>
    <path d="M 343.7,356.4 L 291.3,244.2" stroke="rgba(255,255,255,0.18)" stroke-width="0.9" fill="none"/>
    <path d="M 363.1,376.1 C 408.3,348.1 433.2,271.3 431.8,227.4 C 431.8,227.4 425.2,208.7 406.6,215.7 C 372.2,242.8 329.3,311.3 336.9,363.9 Z" fill="url(#g2)" opacity="0.93"/>
    <path d="M 356.3,356.4 L 408.7,244.2" stroke="rgba(255,255,255,0.18)" stroke-width="0.9" fill="none"/>
    <path d="M 364.0,370.0 C 392.4,328.0 382.7,252.4 363.5,215.4 C 363.5,215.4 350.0,202.0 336.5,215.4 C 317.3,252.4 307.6,328.0 336.0,370.0 Z" fill="url(#g2)" opacity="0.93"/>
    <path d="M 350.0,355.0 L 350.0,239.0" stroke="rgba(255,255,255,0.18)" stroke-width="0.9" fill="none"/>
    <path d="M 355.2,358.8 C 332.3,320.4 268.4,299.9 231.6,301.6 C 231.6,301.6 215.9,307.5 221.6,323.3 C 243.9,352.5 300.6,388.4 344.8,381.2 Z" fill="url(#g3)" opacity="0.93"/>
    <path d="M 336.4,363.7 L 245.4,321.2" stroke="rgba(255,255,255,0.18)" stroke-width="0.9" fill="none"/>
    <path d="M 355.2,381.2 C 399.4,388.4 456.1,352.5 478.4,323.3 C 478.4,323.3 484.1,307.5 468.4,301.6 C 431.6,299.9 367.7,320.4 344.8,358.8 Z" fill="url(#g3)" opacity="0.93"/>
    <path d="M 363.6,363.7 L 454.6,321.2" stroke="rgba(255,255,255,0.18)" stroke-width="0.9" fill="none"/>
    <path d="M 359.2,362.3 C 351.9,318.8 301.9,271.4 268.5,255.9 C 268.5,255.9 252.3,253.6 251.7,269.9 C 261.3,305.5 299.3,363.0 340.8,377.7 Z" fill="url(#g3)" opacity="0.93"/>
    <path d="M 340.4,358.5 L 273.8,279.2" stroke="rgba(255,255,255,0.18)" stroke-width="0.9" fill="none"/>
    <path d="M 359.2,377.7 C 400.7,363.0 438.7,305.5 448.3,269.9 C 448.3,269.9 447.7,253.6 431.5,255.9 C 398.1,271.4 348.1,318.8 340.8,362.3 Z" fill="url(#g3)" opacity="0.93"/>
    <path d="M 359.6,358.5 L 426.2,279.2" stroke="rgba(255,255,255,0.18)" stroke-width="0.9" fill="none"/>
    <path d="M 361.2,367.0 C 371.4,326.7 347.5,265.6 325.3,238.5 C 325.3,238.5 312.5,229.9 305.7,243.8 C 299.9,278.3 309.8,343.2 338.8,373.0 Z" fill="url(#g3)" opacity="0.93"/>
    <path d="M 346.1,355.5 L 320.7,260.8" stroke="rgba(255,255,255,0.18)" stroke-width="0.9" fill="none"/>
    <path d="M 361.2,373.0 C 390.2,343.2 400.1,278.3 394.3,243.8 C 394.3,243.8 387.5,229.9 374.7,238.5 C 352.5,265.6 328.6,326.7 338.8,367.0 Z" fill="url(#g3)" opacity="0.93"/>
    <path d="M 353.9,355.5 L 379.3,260.8" stroke="rgba(255,255,255,0.18)" stroke-width="0.9" fill="none"/>
    <path d="M 355.7,361.8 C 342.2,331.0 296.2,306.4 268.4,302.1 C 268.4,302.1 255.8,304.0 258.3,316.5 C 271.9,341.2 310.7,376.0 344.3,378.2 Z" fill="url(#g4)" opacity="0.93"/>
    <path d="M 337.7,361.4 L 276.5,318.6" stroke="rgba(255,255,255,0.18)" stroke-width="0.9" fill="none"/>
    <path d="M 355.7,378.2 C 389.3,376.0 428.1,341.2 441.7,316.5 C 441.7,316.5 444.2,304.0 431.6,302.1 C 403.8,306.4 357.8,331.0 344.3,361.8 Z" fill="url(#g4)" opacity="0.93"/>
    <path d="M 362.3,361.4 L 423.5,318.6" stroke="rgba(255,255,255,0.18)" stroke-width="0.9" fill="none"/>
    <path d="M 358.3,365.2 C 357.2,331.8 325.7,288.7 302.7,272.0 C 302.7,272.0 291.0,267.8 288.7,280.0 C 291.7,308.3 313.3,357.1 341.7,374.8 Z" fill="url(#g4)" opacity="0.93"/>
    <path d="M 342.5,357.0 L 304.0,290.3" stroke="rgba(255,255,255,0.18)" stroke-width="0.9" fill="none"/>
    <path d="M 358.3,374.8 C 386.7,357.1 408.3,308.3 411.3,280.0 C 411.3,280.0 409.0,267.8 397.3,272.0 C 374.3,288.7 342.8,331.8 341.7,365.2 Z" fill="url(#g4)" opacity="0.93"/>
    <path d="M 357.5,357.0 L 396.0,290.3" stroke="rgba(255,255,255,0.18)" stroke-width="0.9" fill="none"/>
    <path d="M 359.2,370.0 C 372.8,343.0 367.6,294.4 357.2,270.6 C 357.2,270.6 350.0,262.0 342.8,270.6 C 332.4,294.4 327.2,343.0 340.8,370.0 Z" fill="url(#g4)" opacity="0.93"/>
    <path d="M 350.0,355.0 L 350.0,285.8" stroke="rgba(255,255,255,0.18)" stroke-width="0.9" fill="none"/>
    <path d="M 355.8,365.1 C 351.9,343.0 326.0,318.8 308.5,311.2 C 308.5,311.2 299.9,310.2 299.3,318.9 C 303.8,337.5 323.1,367.2 344.2,374.9 Z" fill="url(#g5)" opacity="0.93"/>
    <path d="M 340.4,358.5 L 310.9,323.4" stroke="rgba(255,255,255,0.18)" stroke-width="0.9" fill="none"/>
    <path d="M 355.8,374.9 C 376.9,367.2 396.2,337.5 400.7,318.9 C 400.7,318.9 400.1,310.2 391.5,311.2 C 374.0,318.8 348.1,343.0 344.2,365.1 Z" fill="url(#g5)" opacity="0.93"/>
    <path d="M 359.6,358.5 L 389.1,323.4" stroke="rgba(255,255,255,0.18)" stroke-width="0.9" fill="none"/>
    <path d="M 357.0,368.1 C 361.4,348.3 349.4,318.0 338.0,304.6 C 338.0,304.6 331.4,300.5 327.7,307.4 C 324.5,324.6 329.3,356.9 343.0,371.9 Z" fill="url(#g5)" opacity="0.93"/>
    <path d="M 346.1,355.5 L 335.5,315.8" stroke="rgba(255,255,255,0.18)" stroke-width="0.9" fill="none"/>
    <path d="M 357.0,371.9 C 370.7,356.9 375.5,324.6 372.3,307.4 C 372.3,307.4 368.6,300.5 362.0,304.6 C 350.6,318.0 338.6,348.3 343.0,368.1 Z" fill="url(#g5)" opacity="0.93"/>
    <path d="M 353.9,355.5 L 364.5,315.8" stroke="rgba(255,255,255,0.18)" stroke-width="0.9" fill="none"/>
    <path d="M 356.8,370.0 C 365.0,353.8 361.6,324.5 354.8,310.2 C 354.8,310.2 350.0,305.0 345.2,310.2 C 338.4,324.5 335.0,353.8 343.2,370.0 Z" fill="url(#g5)" opacity="0.93"/>
    <path d="M 350.0,355.0 L 350.0,319.3" stroke="rgba(255,255,255,0.18)" stroke-width="0.9" fill="none"/>
    <circle cx="350" cy="364" r="18" fill="#F5C4D8" opacity="0.7"/>
    <circle cx="350" cy="364" r="11" fill="#FFDFE9" opacity="0.85"/>
    <circle cx="355.7" cy="359.9" r="1.8" fill="#D6A0B5" opacity="0.5"/>
    <circle cx="347.8" cy="357.3" r="1.8" fill="#D6A0B5" opacity="0.5"/>
    <circle cx="343.0" cy="364.0" r="1.8" fill="#D6A0B5" opacity="0.5"/>
    <circle cx="347.8" cy="370.7" r="1.8" fill="#D6A0B5" opacity="0.5"/>
    <circle cx="355.7" cy="368.1" r="1.8" fill="#D6A0B5" opacity="0.5"/>
  </g>
</svg>